#!OML:ASF X:\für Bonn\!DataBase\2005_08_11_Bastian_Final\c3d\Bastian.ASF
:FULLY-SPECIFIED
:DEGREES
106
root -2.16357 16.6962 6.62971 138.915 -19.4601 -167.57
lowerback 47.5102 -8.46328 3.80587
upperback 13.547 -16.6755 6.89689
thorax -2.87969 -11.9816 11.8705
lowerneck -15.0044 -2.40363 -5.13587
upperneck -6.81261 -1.36282 8.21556
head 0.52458 -0.0211977 3.55467
rclavicle 5.92378e-014 -5.56597e-014
rhumerus -30.1447 37.6911 -88.1111
rradius 47.0095
rwrist -18.387
rhand -34.7755 8.50109
rfingers 7.12502
rthumb -7.92807 -21.3302
lclavicle 5.92378e-014 -5.56597e-014
lhumerus 52.0152 -21.7169 76.5619
lradius 120.365
lwrist -21.7764
lhand -63.8991 -11.241
lfingers 7.12502
lthumb -35.8554 15.1109
rfemur -92.5401 -0.079848 39.0141
rtibia 140.12
rfoot 7.42368 -8.73898
rtoes -5.41604
lfemur 21.6907 -6.23022 -15.3096
ltibia 34.9569
lfoot -11.6024 -8.41693
ltoes 5.1497
107
root -2.16469 16.708 6.64936 139.262 -19.2802 -167.592
lowerback 46.4083 -8.34871 3.69853
upperback 14.448 -16.6111 6.72196
thorax -2.87926 -11.894 11.9209
lowerneck -14.9316 -2.38485 -5.16504
upperneck -6.96085 -1.31337 8.27674
head 0.46093 0.00809213 3.5836
rclavicle 3.37934e-014 -8.82604e-014
rhumerus -29.9767 37.3512 -87.8884
rradius 47.0768
rwrist -18.1084
rhand -34.78 8.66881
rfingers 7.12502
rthumb -7.93243 -21.1624
lclavicle 3.37934e-014 -8.82604e-014
lhumerus 51.9675 -21.7743 76.573
lradius 120.024
lwrist -21.8615
lhand -63.8183 -10.6412
lfingers 7.12502
lthumb -35.7788 15.7293
rfemur -91.7828 -0.31358 38.8675
rtibia 140.094
rfoot 6.24547 -8.39508
rtoes -6.38177
lfemur 21.3744 -6.25617 -15.3345
ltibia 34.8374
lfoot -11.553 -8.13989
ltoes 5.07573
108
root -2.16611 16.7216 6.66678 139.676 -19.0869 -167.636
lowerback 46.0957 -8.38147 3.82529
upperback 14.3713 -16.5242 6.71285
thorax -2.9318 -11.7991 11.794
lowerneck -14.852 -2.36794 -5.20617
upperneck -7.04842 -1.27651 8.31434
head 0.416895 0.0278734 3.60608
rclavicle -8.26944e-014 1.26427e-013
rhumerus -29.8882 37.0026 -87.7039
rradius 47.17
rwrist -17.8794
rhand -34.838 8.77638
rfingers 7.12502
rthumb -7.98837 -21.0527
lclavicle -8.26944e-014 1.26427e-013
lhumerus 51.8812 -21.8586 76.5792
lradius 119.668
lwrist -21.9247
lhand -63.7212 -9.97859
lfingers 7.12502
lthumb -35.6868 16.4143
rfemur -90.9124 -0.572205 38.6842
rtibia 140.036
rfoot 5.00411 -8.04981
rtoes -7.2327
lfemur 21.0127 -6.28425 -15.3786
ltibia 34.7149
lfoot -11.5325 -7.82018
ltoes 5.07546
109
root -2.16768 16.7365 6.68435 140.098 -18.87 -167.682
lowerback 45.7456 -8.39514 3.94407
upperback 14.309 -16.4238 6.70404
thorax -2.95863 -11.7004 11.6572
lowerneck -14.7409 -2.35398 -5.23623
upperneck -7.17504 -1.24235 8.34377
head 0.354428 0.0458237 3.62298
rclavicle -1.63003e-014 8.26944e-014
rhumerus -29.7919 36.6727 -87.4975
rradius 47.2877
rwrist -17.716
rhand -34.8935 8.88426
rfingers 7.12502
rthumb -8.04194 -20.9427
lclavicle -1.63003e-014 8.26944e-014
lhumerus 51.8111 -21.9194 76.5499
lradius 119.274
lwrist -21.8804
lhand -63.6016 -9.42734
lfingers 7.12502
lthumb -35.5734 16.9929
rfemur -89.9039 -0.873571 38.453
rtibia 139.948
rfoot 3.7818 -7.693
rtoes -7.33431
lfemur 20.6629 -6.32576 -15.4296
ltibia 34.573
lfoot -11.5068 -7.47649
ltoes 5.12936
110
root -2.16846 16.7529 6.70122 140.565 -18.632 -167.762
lowerback 45.3452 -8.38333 4.02622
upperback 14.2482 -16.3064 6.70164
thorax -2.96657 -11.5938 11.5301
lowerneck -14.6459 -2.3539 -5.34784
upperneck -7.28431 -1.21506 8.42451
head 0.302908 0.0631689 3.67399
rclavicle 3.18055e-015 2.38542e-015
rhumerus -29.6747 36.3545 -87.2802
rradius 47.3773
rwrist -17.573
rhand -34.9511 8.97717
rfingers 7.12502
rthumb -8.09755 -20.8477
lclavicle 3.18055e-015 2.38542e-015
lhumerus 51.7639 -21.9635 76.5126
lradius 118.836
lwrist -21.8019
lhand -63.4653 -8.86032
lfingers 7.12502
lthumb -35.4442 17.5908
rfemur -88.7676 -1.20494 38.1661
rtibia 139.808
rfoot 2.64013 -7.28484
rtoes -7.14495
lfemur 20.3025 -6.35859 -15.5053
ltibia 34.3889
lfoot -11.4512 -7.0941
ltoes 5.18664
111
root -2.1699 16.7705 6.71801 141.048 -18.4085 -167.85
lowerback 44.9038 -8.37665 4.09903
upperback 14.188 -16.1938 6.68456
thorax -2.964 -11.4851 11.387
lowerneck -14.5494 -2.3418 -5.38704
upperneck -7.37469 -1.18752 8.43738
head 0.255229 0.0768458 3.68678
rclavicle 5.1684e-015 1.27222e-014
rhumerus -29.5606 36.0355 -87.0768
rradius 47.4477
rwrist -17.4748
rhand -35.0615 9.13332
rfingers 7.12502
rthumb -8.2041 -20.6874
lclavicle 5.1684e-015 1.27222e-014
lhumerus 51.6861 -21.9978 76.4207
lradius 118.394
lwrist -21.5801
lhand -63.3441 -8.51222
lfingers 7.12502
lthumb -35.3292 17.9663
rfemur -87.5276 -1.63735 37.8336
rtibia 139.624
rfoot 1.6259 -6.93418
rtoes -6.93729
lfemur 19.9555 -6.4121 -15.6065
ltibia 34.1546
lfoot -11.3739 -6.69604
ltoes 5.23058
112
root -2.17125 16.7912 6.73499 141.543 -18.1505 -167.933
lowerback 44.4343 -8.3586 4.18219
upperback 14.1209 -16.0574 6.67001
thorax -2.96465 -11.3612 11.2305
lowerneck -14.4207 -2.33623 -5.41887
upperneck -7.46823 -1.1733 8.44151
head 0.201821 0.0819932 3.69413
rclavicle 7.95139e-016 2.14687e-014
rhumerus -29.4608 35.7092 -86.8886
rradius 47.4952
rwrist -17.3717
rhand -35.1534 9.22074
rfingers 7.12502
rthumb -8.29283 -20.5965
lclavicle 7.95139e-016 2.14687e-014
lhumerus 51.6054 -22.0146 76.3028
lradius 117.926
lwrist -21.2347
lhand -63.2423 -8.28778
lfingers 7.12502
lthumb -35.2328 18.2136
rfemur -86.1482 -2.09683 37.4749
rtibia 139.351
rfoot 0.824522 -6.66801
rtoes -7.22081
lfemur 19.6285 -6.43098 -15.6654
ltibia 33.8488
lfoot -11.2668 -6.31266
ltoes 5.32296
113
root -2.17253 16.8165 6.75182 142.07 -17.8782 -168.032
lowerback 43.9093 -8.33673 4.24984
upperback 14.051 -15.9182 6.64897
thorax -2.95195 -11.2325 11.0653
lowerneck -14.2856 -2.33761 -5.50485
upperneck -7.54774 -1.16269 8.48972
head 0.153609 0.0864784 3.72774
rclavicle -5.4467e-014 1.04958e-013
rhumerus -29.3683 35.4117 -86.7049
rradius 47.5591
rwrist -17.3718
rhand -35.2259 9.3463
rfingers 7.12502
rthumb -8.36282 -20.4682
lclavicle -5.4467e-014 1.04958e-013
lhumerus 51.4759 -21.9985 76.1731
lradius 117.443
lwrist -20.7803
lhand -63.126 -8.39357
lfingers 7.12502
lthumb -35.1224 18.1338
rfemur -84.6434 -2.57148 37.0896
rtibia 138.99
rfoot 0.272326 -6.54612
rtoes -7.83844
lfemur 19.3182 -6.45853 -15.7421
ltibia 33.4651
lfoot -11.1303 -5.89142
ltoes 5.38702
114
root -2.17417 16.844 6.76797 142.596 -17.6077 -168.153
lowerback 43.3091 -8.29695 4.28497
upperback 14.0128 -15.7812 6.61018
thorax -2.88045 -11.1084 10.8788
lowerneck -14.1311 -2.32841 -5.51353
upperneck -7.63548 -1.15197 8.46712
head 0.0972956 0.087247 3.72083
rclavicle 1.63799e-013 -1.11319e-013
rhumerus -29.2866 35.1545 -86.5476
rradius 47.6176
rwrist -17.3846
rhand -35.3573 9.40598
rfingers 7.12502
rthumb -8.4896 -20.4034
lclavicle 1.63799e-013 -1.11319e-013
lhumerus 51.319 -21.9816 76.0019
lradius 116.969
lwrist -20.2703
lhand -62.9856 -8.55595
lfingers 7.12502
lthumb -34.9893 18.0026
rfemur -83.0269 -3.17101 36.6682
rtibia 138.552
rfoot -0.0316274 -6.43845
rtoes -8.34816
lfemur 19.0571 -6.4999 -15.8527
ltibia 33.0186
lfoot -10.9747 -5.43922
ltoes 5.53808
115
root -2.17552 16.8745 6.78395 143.138 -17.3108 -168.255
lowerback 42.6342 -8.24584 4.3387
upperback 13.986 -15.626 6.57591
thorax -2.77615 -10.9747 10.668
lowerneck -13.9646 -2.32265 -5.52288
upperneck -7.741 -1.14338 8.45512
head 0.0334687 0.087497 3.71771
rclavicle -2.38542e-014 6.59965e-014
rhumerus -29.2055 34.8632 -86.3822
rradius 47.6671
rwrist -17.4267
rhand -35.4704 9.51075
rfingers 7.12502
rthumb -8.59876 -20.2941
lclavicle -2.38542e-014 6.59965e-014
lhumerus 51.1098 -21.9601 75.7937
lradius 116.5
lwrist -19.6981
lhand -62.8534 -8.98473
lfingers 7.12502
lthumb -34.8638 17.603
rfemur -81.2597 -3.8358 36.2452
rtibia 137.973
rfoot -0.124205 -6.40371
rtoes -8.47317
lfemur 18.7908 -6.51562 -15.9126
ltibia 32.5374
lfoot -10.7867 -5.00649
ltoes 5.58569
116
root -2.17742 16.901 6.79753 143.651 -17.0268 -168.366
lowerback 41.9333 -8.18355 4.36812
upperback 13.9799 -15.4788 6.53893
thorax -2.63229 -10.8509 10.4598
lowerneck -13.8362 -2.33672 -5.54696
upperneck -7.82046 -1.15917 8.46654
head -0.0128897 0.0771729 3.72498
rclavicle 7.15625e-015 -1.98785e-014
rhumerus -29.1248 34.6169 -86.2035
rradius 47.764
rwrist -17.511
rhand -35.5655 9.59592
rfingers 7.12502
rthumb -8.69052 -20.2052
lclavicle 7.15625e-015 -1.98785e-014
lhumerus 50.8494 -21.912 75.5451
lradius 116.02
lwrist -19.1713
lhand -62.6938 -9.46167
lfingers 7.12502
lthumb -34.7124 17.1611
rfemur -79.3093 -4.6047 35.7693
rtibia 137.28
rfoot -0.0992722 -6.38755
rtoes -8.35508
lfemur 18.5701 -6.53446 -15.9838
ltibia 32.0326
lfoot -10.5955 -4.59908
ltoes 5.8791
117
root -2.17918 16.9273 6.80894 144.195 -16.7371 -168.486
lowerback 41.1844 -8.12103 4.36512
upperback 13.9492 -15.3293 6.50614
thorax -2.49296 -10.7197 10.2681
lowerneck -13.6427 -2.32529 -5.57359
upperneck -7.90181 -1.14946 8.43207
head -0.0734714 0.0753679 3.71744
rclavicle 7.03698e-014 -1.54257e-013
rhumerus -29.0916 34.3894 -86.0517
rradius 47.8391
rwrist -17.6166
rhand -35.6555 9.69865
rfingers 7.12502
rthumb -8.77741 -20.0988
lclavicle 7.03698e-014 -1.54257e-013
lhumerus 50.4646 -21.8168 75.3478
lradius 115.545
lwrist -18.7213
lhand -62.498 -9.83309
lfingers 7.12502
lthumb -34.5265 16.8322
rfemur -77.2541 -5.34795 35.2463
rtibia 136.447
rfoot 0.0137833 -6.42096
rtoes -8.28468
lfemur 18.3354 -6.52028 -16.0406
ltibia 31.5119
lfoot -10.394 -4.19029
ltoes 6.04566
118
root -2.18074 16.9556 6.81906 144.711 -16.4252 -168.594
lowerback 40.4121 -8.03953 4.38187
upperback 13.9426 -15.1608 6.47122
thorax -2.31924 -10.5833 10.0499
lowerneck -13.4962 -2.33475 -5.56491
upperneck -7.95377 -1.17222 8.39428
head -0.114308 0.0578823 3.70057
rclavicle 1.55052e-014 -2.38542e-014
rhumerus -29.0605 34.1626 -85.9104
rradius 47.9382
rwrist -17.7506
rhand -35.7616 9.79079
rfingers 7.12502
rthumb -8.87977 -20.0024
lclavicle 1.55052e-014 -2.38542e-014
lhumerus 50.1154 -21.7261 75.1048
lradius 115.002
lwrist -18.4073
lhand -62.3433 -10.1219
lfingers 7.12502
lthumb -34.3797 16.5768
rfemur -75.0208 -6.02396 34.693
rtibia 135.456
rfoot 0.158323 -6.52315
rtoes -8.6558
lfemur 18.1405 -6.4662 -16.0531
ltibia 30.9742
lfoot -10.2123 -3.85363
ltoes 6.11802
